<svg width="24" height="24" viewBox="0 0 24 24" fill="none" xmlns="http://www.w3.org/2000/svg">
<g clip-path="url(#clip0_313_2754)">
<path d="M21.21 13.6575C21.3658 13.6121 21.5026 13.5173 21.6 13.3875C21.6974 13.2577 21.75 13.0998 21.75 12.9375V9.5625C21.75 9.40022 21.6974 9.24232 21.6 9.1125C21.5026 8.98268 21.3658 8.88794 21.21 8.8425L4.71 3.78C4.59822 3.7474 4.48039 3.74127 4.36584 3.7621C4.25128 3.78293 4.14315 3.83014 4.05 3.9C3.95685 3.96986 3.88125 4.06045 3.82918 4.16459C3.77711 4.26873 3.75 4.38357 3.75 4.5V18C3.75 18.1164 3.77711 18.2313 3.82918 18.3354C3.88125 18.4396 3.95685 18.5301 4.05 18.6C4.14315 18.6699 4.25128 18.7171 4.36584 18.7379C4.48039 18.7587 4.59822 18.7526 4.71 18.72L21.21 13.6575Z" stroke="#1154ED" stroke-width="1.5" stroke-linecap="round" stroke-linejoin="round"/>
<path d="M18 14.6417V17.9999C18 18.1988 17.921 18.3895 17.7803 18.5302C17.6397 18.6708 17.4489 18.7499 17.25 18.7499H14.25C14.0511 18.7499 13.8603 18.6708 13.7197 18.5302C13.579 18.3895 13.5 18.1988 13.5 17.9999V6.47705" stroke="#1154ED" stroke-width="1.5" stroke-linecap="round" stroke-linejoin="round"/>
</g>
<defs>
<clipPath id="clip0_313_2754">
<rect width="24" height="24" fill="white"/>
</clipPath>
</defs>
</svg>
