<svg width="18" height="19" viewBox="0 0 18 19" fill="none" xmlns="http://www.w3.org/2000/svg">
<path d="M6.75 18.2501V12.2501H11.25V18.2501H17.25V9.2501C17.2501 9.15158 17.2307 9.05401 17.1931 8.96296C17.1555 8.87192 17.1003 8.78918 17.0306 8.71948L9.53063 1.21948C9.46097 1.14974 9.37825 1.09443 9.28721 1.05668C9.19616 1.01894 9.09856 0.999512 9 0.999512C8.90144 0.999512 8.80384 1.01894 8.71279 1.05668C8.62175 1.09443 8.53903 1.14974 8.46937 1.21948L0.969375 8.71948C0.899749 8.78918 0.844539 8.87192 0.806898 8.96296C0.769257 9.05401 0.749923 9.15158 0.75 9.2501V18.2501H6.75Z" stroke="#4B5767" stroke-width="1.5" stroke-linecap="round" stroke-linejoin="round"/>
</svg>
