<svg width="25" height="24" viewBox="0 0 25 24" fill="none" xmlns="http://www.w3.org/2000/svg">
<g clip-path="url(#clip0_317_2938)">
<path d="M12.5 17.8125C13.0178 17.8125 13.4375 17.3928 13.4375 16.875C13.4375 16.3572 13.0178 15.9375 12.5 15.9375C11.9822 15.9375 11.5625 16.3572 11.5625 16.875C11.5625 17.3928 11.9822 17.8125 12.5 17.8125Z" fill="#4B5767"/>
<path d="M12.5 13.5V12.75C14.1566 12.75 15.5 11.5744 15.5 10.125C15.5 8.67562 14.1566 7.5 12.5 7.5C10.8434 7.5 9.5 8.67562 9.5 10.125V10.5" stroke="#4B5767" stroke-width="1.5" stroke-linecap="round" stroke-linejoin="round"/>
<path d="M12.5 21C17.4706 21 21.5 16.9706 21.5 12C21.5 7.02944 17.4706 3 12.5 3C7.52944 3 3.5 7.02944 3.5 12C3.5 16.9706 7.52944 21 12.5 21Z" stroke="#4B5767" stroke-width="1.5" stroke-linecap="round" stroke-linejoin="round"/>
</g>
<defs>
<clipPath id="clip0_317_2938">
<rect width="24" height="24" fill="white" transform="translate(0.5)"/>
</clipPath>
</defs>
</svg>
