<svg width="25" height="24" viewBox="0 0 25 24" fill="none" xmlns="http://www.w3.org/2000/svg">
<g clip-path="url(#clip0_317_2929)">
<path d="M11 18C15.1421 18 18.5 14.6421 18.5 10.5C18.5 6.35786 15.1421 3 11 3C6.85786 3 3.5 6.35786 3.5 10.5C3.5 14.6421 6.85786 18 11 18Z" stroke="#4B5767" stroke-width="1.5" stroke-linecap="round" stroke-linejoin="round"/>
<path d="M16.3032 15.8032L21.4998 20.9998" stroke="#4B5767" stroke-width="1.5" stroke-linecap="round" stroke-linejoin="round"/>
<path d="M10.8242 13.5586C11.1414 13.5586 11.3984 13.3015 11.3984 12.9844C11.3984 12.6672 11.1414 12.4102 10.8242 12.4102C10.5071 12.4102 10.25 12.6672 10.25 12.9844C10.25 13.3015 10.5071 13.5586 10.8242 13.5586Z" fill="#4B5767"/>
<path d="M10.8242 6.75V11.0156" stroke="#4B5767" stroke-width="1.5" stroke-linecap="round" stroke-linejoin="round"/>
</g>
<defs>
<clipPath id="clip0_317_2929">
<rect width="24" height="24" fill="white" transform="translate(0.5)"/>
</clipPath>
</defs>
</svg>
